<?xml version="1.0" encoding="UTF-8"?>
<svg id="OBJECTS" xmlns="http://www.w3.org/2000/svg" xmlns:xlink="http://www.w3.org/1999/xlink" viewBox="0 0 616.91 616.91">
  <defs>
    <style>
      .cls-1 {
        fill: #ea4634;
      }

      .cls-1, .cls-2, .cls-3, .cls-4, .cls-5, .cls-6, .cls-7, .cls-8, .cls-9, .cls-10, .cls-11, .cls-12, .cls-13, .cls-14, .cls-15, .cls-16 {
        stroke-width: 0px;
      }

      .cls-2 {
        fill: #ffac83;
      }

      .cls-3 {
        fill: #000;
      }

      .cls-4 {
        fill: none;
      }

      .cls-5 {
        fill: #723508;
      }

      .cls-6 {
        fill: #f7778a;
      }

      .cls-7 {
        fill: #9d4900;
      }

      .cls-8 {
        fill: #d2ecfc;
      }

      .cls-17 {
        clip-path: url(#clippath);
      }

      .cls-9 {
        fill: #1bcfed;
      }

      .cls-10 {
        fill: #4e4e4e;
      }

      .cls-11 {
        fill: #868686;
      }

      .cls-12 {
        fill: #ed8e64;
      }

      .cls-13 {
        fill: #0ab0c1;
      }

      .cls-14 {
        fill: #fff;
      }

      .cls-15 {
        fill: #797979;
      }

      .cls-16 {
        fill: #959595;
      }
    </style>
    <clipPath id="clippath">
      <circle class="cls-4" cx="304.76" cy="285.68" r="229.2"/>
    </clipPath>
  </defs>
  <g class="cls-17">
    <g>
      <rect class="cls-8" width="616.91" height="616.91"/>
      <g>
        <path class="cls-1" d="M404.82,219.51c.48-.2.64-.6.89-.91,1.57-1.94,3.13-3.89,5.09-5.47,1.46-1.17,3.1-1.97,4.96-2.27,1.86-.3,3.21.68,3.55,2.52.26,1.4.07,2.77-.36,4.11-.41,1.29-.97,2.53-1.74,3.64-3.4,4.9-6.73,9.86-10.86,14.21-1.21,1.27-2.49,2.48-3.75,3.71-.26.26-.55.5-.86.68-.69.39-1.27.22-1.64-.47-.12-.21-.18-.45-.26-.68-1.91-5.67-3.4-11.44-4.27-17.35-.49-3.3-.59-6.6.43-9.84.31-.98.64-1.94,1.24-2.79,1.16-1.64,2.82-1.8,4.29-.44.64.6,1.03,1.36,1.36,2.16,1.02,2.44,1.38,5.03,1.68,7.63.06.51.02,1.04.25,1.54Z"/>
        <path class="cls-1" d="M475.91,201.5c.45-.42.82-.78,1.2-1.14,1.49-1.42,3.13-2.62,5.03-3.45.91-.4,1.85-.66,2.84-.66,2.84-.01,4.84,2.32,4.39,5.12-.28,1.77-1.04,3.35-1.99,4.84-1,1.56-2.24,2.92-3.59,4.17-3.22,3-6.75,5.56-10.7,7.51-1.39.69-2.77,1.4-4.17,2.08-1.47.72-2.08.43-2.34-1.24-.27-1.78-.44-3.57-.62-5.36-.38-3.66-.59-7.33-.53-11.02.03-1.97.28-3.91.77-5.82.46-1.77,1.32-3.34,2.52-4.71.82-.94,1.86-1.44,3.11-1.52,1.35-.09,2.38.45,3.14,1.54.79,1.14,1.15,2.44,1.25,3.8.11,1.51.08,3.02-.19,4.52-.07.38-.25.77-.1,1.34Z"/>
        <path class="cls-1" d="M430.21,145.06c.49-.32.57-.74.76-1.09.93-1.74,2.08-3.32,3.48-4.71.46-.46.96-.88,1.54-1.21,1.62-.92,3.24-.55,4.27,1,.84,1.25.99,2.66.76,4.12-.22,1.42-.71,2.76-1.28,4.08-1.8,4.17-4.37,7.84-7.26,11.3-1.15,1.38-2.35,2.72-3.53,4.07-.11.12-.21.25-.33.36-.83.8-1.4.7-1.85-.34-.23-.52-.45-1.05-.63-1.59-1.54-4.65-3.07-9.31-3.8-14.17-.3-1.99-.47-3.97-.15-5.98.14-.9.4-1.75.89-2.52,1.04-1.67,2.79-1.91,4.26-.59.75.67,1.18,1.55,1.54,2.47.59,1.53.91,3.13,1.34,4.8Z"/>
      </g>
      <g>
        <g>
          <g>
            <path class="cls-12" d="M321.4,283.61c-9.05-.2-18.03-1-26.84-3.21-3.5-.88-6.83-2.23-10.02-3.92-1.16-.61-2.25-1.34-3.26-2.17-1.02-.83-1.11-1.09-.66-2.31,1.33-3.6,2.71-7.19,4.21-10.72,3.1-7.26,6.75-14.26,10.24-21.33.22-.44.43-.89.78-1.24.48-.49,1.1-.6,1.51-.1,1.21,1.47,2.96,2.13,4.51,3.04,5.21,3.04,10.91,4.52,16.88,5.12,2.57.26,5.14.43,7.71.08,4.71-.63,8.99-2.37,12.84-5.14,2.66-1.92,5.05-4.15,7.61-6.19.34-.27.51-.62.64-1.01.1-.31.18-.64.35-.91.37-.58,1.03-.66,1.42-.11.59.82,1.07,1.61.87,2.79-.66,4.03-1.52,8.03-2.19,12.06-.23,1.37-.44,2.75-.48,4.14-.1,3.07-.47,6.11-.7,9.17-.22,2.82-.23,2.86,2.5,3.13,4.03.39,8.05.84,12.11.72,1.23-.04,2.45.12,3.67.24.4.04.82.11,1.2.25.68.26.87.87.47,1.48-.4.62-.95,1.12-1.49,1.62-2.92,2.66-6.16,4.86-9.68,6.64-7.58,3.83-15.58,6.34-24.03,7.3-3.37.38-6.76.59-10.16.59Z"/>
            <g>
              <path class="cls-2" d="M280.52,194.34c-.42.32-.69.51-.94.71-2.13,1.77-4.41,1.72-6.74.49-2.22-1.16-3.56-3.07-4.42-5.36-.7-1.87-.87-3.81-.83-5.79.07-3.06.57-6.02,1.84-8.82.74-1.62,1.69-3.08,3.14-4.17,1.56-1.18,3.23-1.76,5.13-.82.34.17.6.14.88-.11,3.79-3.36,8.33-5.44,12.83-7.59,6.49-3.11,13-6.16,19.16-9.9,3.68-2.23,7.16-4.71,10.22-7.79,4.24-4.28,7.22-9.26,8.69-15.12.12-.48.24-.95.41-1.41.3-.8.81-1.18,1.54-1.18.8,0,1.28.45,1.58,1.15.06.15.11.31.15.46,1.07,4.01,3.03,7.56,5.57,10.83,3.75,4.81,8.16,8.92,13.04,12.56,2.76,2.06,5.35,4.31,7.61,6.92,2.43,2.81,4.5,5.83,5.49,9.46.17.6.42.63.96.42,4.43-1.77,9.49,1.44,10.29,5.91.44,2.43.21,4.81-.3,7.18-.54,2.49-1.5,4.83-2.85,7.01-.96,1.56-2.2,2.84-3.75,3.82-1.1.7-2.31,1.03-3.62.94-1-.07-1.01-.08-1.24.94-.76,3.39-1.58,6.76-2.49,10.12-1.51,5.52-3.18,10.99-5.4,16.28-2.1,5-4.78,9.66-8.08,13.98-1.89,2.48-4.16,4.47-6.89,5.98-1.61.89-3.17,1.86-4.8,2.71-3.05,1.6-6.25,2.55-9.76,2.19-1.62-.17-3.27-.08-4.9-.14-3.92-.14-7.83-.35-11.58-1.68-2-.71-3.99-1.43-6-2.14-2.6-.92-5.08-2.04-7.16-3.9-.18-.16-.4-.36-.62-.38-1.17-.11-1.72-1.01-2.35-1.8-3.26-4.12-5.55-8.76-7.34-13.66-3.08-8.45-5.09-17.15-6.16-26.07-.08-.68-.19-1.36-.32-2.22Z"/>
              <path class="cls-7" d="M332.78,133.06c-.42.29-.48.72-.65,1.08-2.47,5.1-5.32,9.96-9.29,14.06-4.72,4.89-10.04,8.99-16.1,12.12-5.45,2.82-11.1,5.2-16.82,7.4-1.69.65-3.23,1.59-4.67,2.66-1.57,1.16-2.52,2.76-3.12,4.59-.15.47-.25.95-.39,1.42-.1.31-.19.63-.35.91-.49.87-1.42,1.27-2.4,1.07-.89-.18-1.42-.77-1.52-1.83-.08-.86-.15-1.71-.58-2.48-.59-1.06-1.13-1.16-1.98-.26-.42.44-.78.95-1.11,1.46-1.85,2.89-2.71,6.11-2.97,9.5-.18,2.29-.2,4.58.43,6.82.17.59.37,1.17.69,1.7.76,1.26,1.74,1.56,3.01.85,1.6-.91,2.88-2.15,3.64-3.86.17-.37.3-.76.51-1.11.36-.63.93-.91,1.66-.79.73.12,1.15.61,1.3,1.3.09.39.07.81.05,1.22-.61,10.67,1.99,20.67,6.27,30.32,2,4.51,4.49,8.73,7.58,12.57,1.42,1.76,1.82,3.68,1.48,5.86-.47,3.05-1.36,5.98-2.47,8.84-1.5,3.85-3.16,7.63-4.91,11.37-2.64,5.62-6.35,10.47-10.59,14.95-4.8,5.06-10.18,9.46-15.68,13.73-7.66,5.95-15.51,11.62-23.82,16.64-5.92,3.58-12.12,6.63-18.37,9.56-7.81,3.65-15.66,7.22-23.67,10.41-10.63,4.23-21.42,8.04-32.52,10.86-4.8,1.22-9.63,2.25-14.56,2.74-4.61.46-9.22.39-13.83-.1-5.39-.58-10.63-1.76-15.74-3.58-8.54-3.04-15.38-8.34-20.9-15.47-4.6-5.94-7.62-12.55-8.67-20.02-1.06-7.53-.5-14.95,1.96-22.16,4.71-13.79,12.77-25.12,24.75-33.58,7.07-4.99,14.58-9.19,22.44-12.79,10.18-4.67,20.67-8.59,31.08-12.7,8.74-3.45,17.41-7.08,25.89-11.15,12.54-6.01,24.09-13.49,34.5-22.72,8.69-7.7,16.56-16.16,23.99-25.05,5.95-7.13,11.96-14.2,18.41-20.89,5.35-5.56,11.04-10.7,17.63-14.78,3.48-2.15,7.02-4.2,10.85-5.68,4.52-1.74,9.19-2.75,14.04-2.29,6.44.62,12,3.06,16.02,8.38.27.35.46.76,1.06.62,1.68-.4,3.34-.14,4.98.21,6.09,1.28,11.66,3.82,16.67,7.45,5.79,4.19,10.9,9.15,15.11,14.96,4.02,5.54,6.67,11.69,7.91,18.44.76,4.15,1.22,8.33,1.27,12.55.08,6.3-.78,12.48-2.22,18.58-1.73,7.37-3.9,14.61-6.89,21.58-2.02,4.71-4.34,9.25-7.27,13.47-3.26,4.7-7.35,8.54-12.17,11.61-.34.22-.69.45-1.07.6-1.34.54-2.69-.33-2.59-1.77.12-1.71.43-3.4.63-5.11.84-7.21,3.13-14.01,5.88-20.69,3.05-7.38,5.43-14.98,7.12-22.78.36-1.68.6-3.38.83-5.08.03-.24.04-.49.1-.73.22-.84.76-1.36,1.48-1.44.76-.08,1.33.25,1.73,1.09.25.51.43,1.06.69,1.57.41.81.69.88,1.43.37.75-.51,1.35-1.18,1.88-1.91,1.65-2.26,2.6-4.81,3.02-7.55.27-1.77.67-3.54.29-5.35-.03-.12-.02-.25-.06-.36-1.16-3.7-3.23-4.32-6.42-2.58-.25.14-.45.36-.69.51-1.32.81-2.69.17-2.9-1.37-.08-.57-.14-1.14-.17-1.71-.18-2.68-1.34-4.94-2.98-6.99-1.46-1.83-3.15-3.43-5-4.86-3.19-2.48-6.54-4.78-9.51-7.55-4.29-4.02-8.14-8.4-11.02-13.55-.59-1.05-1.09-2.16-1.63-3.26Z"/>
              <path class="cls-1" d="M316.06,224.44c-.59-.07-1.4-.38-2.15-.82-2.46-1.45-4.68-3.31-6.51-5.82-.37-.5-.66-1.04-.32-1.79.31-.67.8-.74,1.33-.69,1.69.17,3.38-.18,5.07-.73,2.1-.69,4.05-.64,5.69,1.04.29.29.57.28.9,0,2.61-2.19,5.15-2.07,7.71-.76,1.28.65,2.58,1.34,4.06,1.34.37,0,.69.28.76.81.07.51-.12.94-.46,1.25-.6.54-1.21,1.07-1.83,1.58-1.67,1.4-3.46,2.49-5.26,3.5-2.9,1.62-5.8,1.65-8.97,1.1Z"/>
              <path class="cls-14" d="M343.2,186.95c-2.37.02-4.62-.79-6.7-2.08-1.19-.74-1.18-1.42-.05-2.23,1.99-1.43,4.17-2.41,6.61-2.74,3.21-.43,6.06.55,8.69,2.29.88.58.86,1.36-.07,1.96-2.54,1.64-5.25,2.83-8.48,2.8Z"/>
              <path class="cls-14" d="M302.06,185.73c-1.75.02-3.4-.37-4.95-1.17-.22-.11-.44-.23-.63-.37-1.06-.76-1.15-1.39-.22-2.28,3.17-3,7.57-4.76,12.44-2.27.87.44,1.77.85,2.55,1.45.85.65.83,1.21-.08,1.79-2.77,1.78-5.82,2.68-9.1,2.84Z"/>
              <path class="cls-5" d="M344.14,174.46c-1.97-.01-3.9.34-5.81.8-1.86.45-3.72.92-5.58,1.38-.28.07-.57.12-.85.11-.86-.03-1.5-.63-1.58-1.43-.08-.75.37-1.43,1.17-1.66.9-.26,1.82-.44,2.73-.67,2.65-.67,5.28-1.44,8.02-1.66,4.32-.35,8.45.44,12.43,2.11.46.19.85.48,1.14.9.47.69.44,1.46-.08,2.03-.47.52-1.23.69-1.91.31-2.79-1.56-5.84-1.99-8.95-2.23-.24-.02-.49,0-.73,0Z"/>
              <path class="cls-5" d="M301.03,170.66c3.82-.04,7.26.75,10.57,2.15.37.16.75.33,1.08.56.65.47.85,1.28.54,1.96-.31.68-1.04,1.01-1.85.81-.2-.05-.38-.13-.57-.22-4.99-2.23-10.16-2.58-15.46-1.4-1.35.3-2.72.56-4.04.98-.39.13-.8.17-1.21.12-.71-.09-1.23-.56-1.37-1.21-.13-.67.15-1.32.75-1.67.17-.1.37-.18.57-.23,3.68-.96,7.36-1.88,10.99-1.85Z"/>
              <path class="cls-12" d="M298.82,192.82c1.57,0,3.07.28,4.45,1.07,3,1.73,4.45,5.32,3.45,8.64-1.12,3.69-4.46,6.01-7.39,6.2-1.97.12-3.7-.44-5.13-1.78-1.77-1.68-2.78-3.76-3.02-6.19-.38-3.76,2.69-8.1,7.65-7.93Z"/>
              <path class="cls-12" d="M335.86,201.57c.1-1.56.39-3.07,1.19-4.43,1.62-2.75,3.98-4.16,7.22-3.9,1.89.15,3.62.8,5.13,1.95,3.15,2.39,4.07,6.67,2.18,10.18-1.1,2.05-2.74,3.52-4.93,4.35-4.73,1.8-9.91-1.26-10.63-6.27-.09-.62-.11-1.25-.17-1.88Z"/>
              <path class="cls-5" d="M312.16,218.77c-1.66-.22-3.49-.8-5.35-1.3-.31-.08-.62-.21-.92-.33-.81-.32-1.07-.69-.86-1.22.2-.5.68-.63,1.48-.36,5.78,1.97,11.69,2.58,17.76,1.91,3.21-.35,6.4-.74,9.52-1.61.19-.05.41-.1.6-.08.35.03.62.22.72.57.09.34-.01.65-.31.86-.37.27-.82.38-1.25.48-5.31,1.26-10.69,1.82-16.15,1.7-1.68-.04-3.34-.28-5.23-.64Z"/>
              <path class="cls-3" d="M343.5,180.49c1.73,0,3.15,1.45,3.17,3.23.02,1.91-1.37,3.47-3.08,3.44-1.82-.03-3.2-1.4-3.21-3.18-.02-2.03,1.29-3.5,3.12-3.5Z"/>
              <path class="cls-3" d="M306.15,182.45c-.08.76-.31,1.58-.93,2.23-.91.96-2.32,1.11-3.32.28-1.53-1.28-2.01-3.9.16-5.48.56-.41,1.21-.48,1.87-.26,1.13.37,2.22,1.92,2.23,3.24Z"/>
              <path class="cls-12" d="M333.31,139.82c-.51,2.5-1.3,4.64-2.16,6.75-1.57,3.86-3.67,7.38-6.45,10.49-3.67,4.1-8.26,6.73-13.39,8.54-4.17,1.48-8.5,2.35-12.79,3.37-3.2.76-6.28,1.75-9.02,3.67-1.36.95-2.53,2.04-3.43,3.44-.9,1.41-1.88,2.78-2.82,4.16-.16.24-.32.47-.5.69-.43.52-.98.73-1.64.57-.68-.16-1.01-.66-1.19-1.28-.12-.44-.1-.9.02-1.34.54-2.02,1.21-3.98,2.31-5.78,1.51-2.47,3.72-4.09,6.23-5.38,1.42-.73,2.84-1.44,4.35-1.98,3.9-1.39,7.59-3.22,11.1-5.41,6.32-3.94,12.49-8.1,17.99-13.15,3.52-3.24,6.3-7.06,8.38-11.39.25-.53.45-1.04.4-1.64-.02-.2,0-.41.05-.61.17-.7.7-1.14,1.38-1.19.71-.04,1.2.31,1.53.99,1.94,4.04,4.05,7.97,7.04,11.38,3.54,4.05,7.46,7.67,11.75,10.92,2.61,1.98,5.24,3.92,7.45,6.36,2.09,2.29,3.74,4.85,4.82,7.76.07.19.14.38.2.58.27.95-.04,1.74-.81,2.05-.83.34-1.64-.03-2.08-.98-.34-.74-.59-1.53-.94-2.26-1.78-3.71-4.62-6.5-7.82-8.97-2.91-2.25-5.87-4.44-8.58-6.94-4.16-3.84-8-7.95-10.9-12.87-.08-.14-.2-.25-.47-.58Z"/>
              <path class="cls-3" d="M353.99,183.39c0,.53-.49.9-1.02.7-.38-.14-.72-.39-1.07-.59-1.58-.94-3.21-1.78-5.01-2.25-2.92-.76-5.66-.13-8.3,1.15-.84.41-1.65.89-2.48,1.33-.22.12-.42.25-.65.34-.41.17-.81.19-1.08-.24-.3-.49-.06-.85.34-1.15.03-.02.06-.05.1-.07,2.23-1.3,4.48-2.51,7.03-3.07,2.14-.47,4.23-.25,6.28.39,1.84.58,3.53,1.49,5.15,2.53.35.22.7.44.7.93Z"/>
              <path class="cls-3" d="M304.47,179.51c-2.71.22-5.15,1.16-7.34,2.76-.56.41-1.06.89-1.6,1.33-.37.31-.78.48-1.21.1-.35-.31-.31-.83.15-1.29.82-.8,1.71-1.52,2.69-2.13,1.51-.93,3.12-1.59,4.83-2.04,1.96-.51,3.87-.43,5.77.3,1.5.57,2.86,1.39,4.19,2.27.17.11.33.25.45.41.21.29.22.62,0,.92-.22.3-.55.39-.87.24-.41-.19-.78-.44-1.16-.68-1.35-.86-2.75-1.61-4.32-1.99-.52-.13-1.04-.22-1.58-.2Z"/>
              <g>
                <path class="cls-3" d="M332.59,125.3c.24-.3.38-.55.59-.73.29-.27.66-.33,1.02-.14.32.17.52.47.41.81-.19.58.15.76.55,1.04,4.78,3.38,9.82,6.34,14.84,9.33,4.04,2.41,7.96,5,11.53,8.09,4.39,3.81,7.72,8.42,10.34,13.57,2.49,4.89,4.09,10.05,4.63,15.54.48,4.92.18,9.79-.5,14.67-1.14,8.19-3.59,16.01-6.34,23.76-2.76,7.79-5.98,15.39-9.33,22.93-.13.3-.26.6-.46.86-.23.31-.56.49-.96.31-.44-.2-.59-.56-.46-1.01.1-.35.27-.68.42-1.02,2.45-5.58,4.97-11.12,7.06-16.85,2.4-6.56,4.92-13.09,6.58-19.89,1.24-5.09,2.17-10.25,2.46-15.48.79-13.96-3.83-25.86-13.94-35.55-3.47-3.33-7.55-5.87-11.65-8.34-4.9-2.96-9.89-5.76-14.54-9.12-.19-.14-.38-.3-.6-.3-.16.11-.18.26-.11.35,1.21,1.56,2.06,3.34,3.19,4.94,2.95,4.16,6.58,7.59,10.81,10.4,2.14,1.43,4.33,2.79,6.5,4.17,1.69,1.08,3.3,2.26,4.86,3.53,4.43,3.62,6.76,8.41,7.75,13.94.25,1.41.3,2.85.32,4.28,0,.33,0,.66-.05.98-.07.41-.34.66-.76.67-.42,0-.71-.21-.78-.63-.06-.36-.09-.73-.09-1.1-.03-2.55-.4-5.05-1.18-7.48-1.41-4.41-4.08-7.86-7.8-10.57-2.81-2.05-5.78-3.85-8.71-5.72-5.78-3.7-10.56-8.36-14.06-14.3-.1-.17-.17-.37-.47-.51-.39.59-.28,1.3-.45,1.93-.09.35-.08.73-.16,1.09-.1.46-.29.87-.87.87-.49,0-.73-.3-.8-.76-.02-.11,0-.24-.27-.34-1.04.94-2.14,1.9-3.2,2.89-3.13,2.94-6.25,5.9-9.68,8.49-6.05,4.57-12.36,8.71-19.17,12.07-3.3,1.63-6.58,3.31-9.43,5.68-3.92,3.27-7.41,6.92-9.87,11.45-.31.57-.57,1.18-.86,1.76-.11.22-.19.46-.34.65-.36.5-.87.62-1.27.34-.46-.33-.41-.72-.19-1.19.84-1.77,1.7-3.54,2.85-5.14,4.21-5.89,9.41-10.66,15.96-13.84,6.68-3.24,12.99-7.08,19.01-11.41,3.06-2.2,5.94-4.61,8.7-7.17,2.37-2.2,4.75-4.38,7.13-6.57.44-.41.92-.79,1.1-1.31-.04-.26-.17-.3-.28-.3-5.58-.19-11.12.09-16.53,1.63-4.97,1.41-9.44,3.87-13.73,6.67-4.96,3.24-9.29,7.22-13.44,11.41-9.44,9.54-18.35,19.56-27.14,29.7-5.32,6.15-11.31,11.57-17.52,16.78-11.29,9.48-23.57,17.45-36.7,24.14-8.7,4.44-17.52,8.64-26.26,12.99-7.1,3.53-14.19,7.1-20.93,11.29-8.34,5.18-16.51,10.64-23.88,17.17-14.51,12.85-26.22,27.81-33.84,45.78-.91,2.15-1.61,4.37-2.14,6.64-.04.16-.06.32-.1.48-.11.4-.35.65-.78.63-.48-.02-.74-.31-.82-.76-.09-.46.07-.89.17-1.32.7-2.92,1.77-5.69,3.03-8.4,4.4-9.45,9.55-18.45,16.25-26.48,6.8-8.15,14.08-15.82,22.54-22.31,11.03-8.46,22.75-15.8,35.23-21.95,9.27-4.57,18.56-9.12,27.79-13.76,8.33-4.18,16.52-8.64,24.2-13.95,9.94-6.88,19.33-14.43,27.86-23.02,3.46-3.48,6.52-7.33,9.79-10.99,7.42-8.28,14.8-16.61,22.67-24.48,5.4-5.4,11.23-10.23,17.95-13.95,6.74-3.73,13.93-5.55,21.59-5.64,1.55-.02,3.11,0,4.66,0,.27,0,.59.09.75-.25.17-.36,0-.64-.25-.87-.37-.32-.74-.65-1.15-.91-3.22-2.07-6.72-3.27-10.56-3.6-5.51-.47-10.62.82-15.57,3.09-6.46,2.97-12.16,7.01-17.3,11.89-8.36,7.93-15.86,16.63-22.83,25.79-8.32,10.94-18.06,20.42-28.69,29.11-14.62,11.95-30.77,21.25-48,28.8-10.03,4.4-20.26,8.31-30.47,12.25-6.56,2.53-13.08,5.15-19.34,8.36-9.09,4.66-17.29,10.53-24.53,17.77-6.68,6.68-11.96,14.27-15.47,23.06-.73,1.82-1.52,3.62-2.29,5.42-.16.37-.29.77-.58,1.07-.36.36-.79.48-1.21.18-.39-.27-.38-.65-.19-1.09,1.49-3.36,2.93-6.75,4.45-10.09,2.85-6.27,6.78-11.81,11.41-16.9,10.06-11.08,22.27-18.99,35.94-24.83,7.37-3.15,14.87-5.93,22.34-8.82,10.49-4.05,20.84-8.41,30.93-13.37,14.46-7.11,27.69-16.06,40-26.46,8.95-7.56,17.02-15.91,24.14-25.19,4.48-5.84,9.11-11.57,14.12-16.97,4.42-4.77,8.9-9.49,14.01-13.55,5.58-4.44,11.67-7.99,18.52-10.08,5.59-1.7,11.2-1.68,16.78.12,2.19.71,4.19,1.84,6.15,3.17Z"/>
                <path class="cls-3" d="M282,189.53c-.07.62-.42,1.08-.77,1.53-1.33,1.71-2.84,3.27-4.33,4.85-5.69,6.08-12.43,10.86-19.31,15.44-8.45,5.62-17.38,10.43-26.37,15.11-8.85,4.6-17.7,9.18-26.48,13.9-11.32,6.09-22.15,12.95-32.65,20.37-7.48,5.29-14.88,10.69-21.78,16.73-10.07,8.84-19.53,18.27-27.9,28.76-4.72,5.91-9.28,11.95-13.34,18.34-.11.17-.21.35-.33.51-.3.39-.68.63-1.16.34-.46-.28-.52-.71-.26-1.17.22-.39.45-.78.69-1.16,3.24-5.07,6.83-9.89,10.52-14.64,13.98-17.99,30.4-33.42,49-46.55,6.92-4.88,13.82-9.77,21.04-14.2,8.85-5.44,18.02-10.3,27.21-15.13,8.72-4.58,17.53-8.98,26.14-13.76,8.52-4.73,16.76-9.88,24.51-15.8,4.8-3.67,9.1-7.84,13.01-12.43.4-.46.71-1,1.08-1.48.24-.31.56-.47.97-.31.35.14.46.43.51.75Z"/>
                <path class="cls-3" d="M102.94,319.97c-.49.03-.86-.32-.81-.85.03-.32.16-.63.27-.94,1.08-3.07,2.76-5.83,4.39-8.62,6.88-11.83,15.22-22.53,24.63-32.47,14.03-14.83,29.79-27.48,47.09-38.26,8.37-5.21,17.15-9.69,25.93-14.15,10.78-5.48,21.75-10.6,32.6-15.92,4.81-2.36,9.54-4.86,14.25-7.4,5.84-3.15,11.29-6.92,16.73-10.69.47-.32.87-.74,1.31-1.1.36-.29.76-.36,1.12-.05.41.36.37.8.05,1.2-.48.62-1.12,1.07-1.76,1.52-7.38,5.23-15.07,9.94-23.13,14.08-8.43,4.33-17.01,8.37-25.54,12.52-11.06,5.38-22.1,10.81-32.83,16.83-15.08,8.45-29,18.52-41.83,30.1-8.94,8.07-17.23,16.77-24.71,26.22-5.59,7.07-10.43,14.65-14.78,22.54-.79,1.43-1.46,2.92-2.02,4.46-.17.46-.34.95-.95.99Z"/>
                <path class="cls-3" d="M112.14,326.5c-.56-.04-.9-.63-.63-1.18.18-.36.46-.67.7-1,5.76-7.65,12.72-14.03,20.48-19.59,9.9-7.1,19.92-14.03,30.54-20.03,8.93-5.05,17.89-10.03,26.93-14.9,13.42-7.23,26.78-14.58,39.74-22.62,12.31-7.64,24.13-15.99,35.28-25.25,5.22-4.34,10.21-8.95,15.01-13.76.35-.35.65-.73.98-1.09.31-.34.69-.48,1.1-.23.48.29.46.75.24,1.19-.3.59-.81,1.03-1.27,1.48-3.9,3.85-7.92,7.58-12.04,11.18-9.84,8.61-20.46,16.17-31.33,23.38-10.56,7.01-21.59,13.25-32.67,19.41-12.68,7.05-25.49,13.86-38.14,20.96-10.79,6.05-21.08,12.84-31.13,20.03-3.19,2.28-6.38,4.57-9.36,7.13-4.61,3.95-8.85,8.25-12.52,13.1-.34.46-.71.9-1.08,1.34-.21.26-.47.46-.83.44Z"/>
                <path class="cls-3" d="M250.19,249.46c0,.41-.27.67-.56.9-.8.63-1.6,1.27-2.42,1.88-10.82,8.16-22.16,15.51-33.75,22.53-13.84,8.39-27.84,16.51-41.75,24.79-8.46,5.04-16.9,10.13-25.41,15.09-8.94,5.21-18.08,10.03-27.7,13.9-.72.29-1.42.63-2.12.96-.3.14-.59.29-.93.27-.31-.02-.55-.14-.7-.42-.17-.33-.1-.63.13-.91.24-.3.61-.4.94-.55,3.72-1.69,7.54-3.16,11.22-4.94,8.91-4.32,17.51-9.18,25.99-14.29,16.49-9.93,33.16-19.57,49.69-29.44,9.23-5.51,18.48-11,27.41-16.99,6.21-4.17,12.34-8.46,18.23-13.08.26-.2.5-.42.85-.46.5-.05.9.29.89.77Z"/>
                <path class="cls-3" d="M122.64,334.11c-.76.05-1.22-.05-1.36-.66-.12-.52.23-.89.97-1.01,8.04-1.27,15.61-4.17,23.27-6.76,8.96-3.02,17.46-7.13,26.01-11.15,9.92-4.67,19.66-9.66,29.06-15.29,1.96-1.18,3.88-2.43,5.82-3.64.35-.22.7-.43,1.06-.61.39-.19.74-.05.97.28.24.34.22.73-.08,1.01-.29.28-.65.49-.99.71-10.71,6.89-21.92,12.85-33.44,18.26-7.32,3.44-14.58,7.01-22.14,9.92-7.82,3.01-15.77,5.63-23.85,7.85-1.81.5-3.66.84-5.3,1.09Z"/>
                <path class="cls-3" d="M144.64,335.83c-.48-.03-.79-.21-.9-.61-.12-.41.06-.75.43-.92.4-.19.84-.31,1.27-.43,5.77-1.66,11.58-3.15,17.34-4.86,14.03-4.17,27.84-8.93,41.19-14.96,4.51-2.04,8.98-4.13,13.06-6.97.81-.57,1.29-.57,1.62-.11.35.49.13.94-.74,1.55-4.38,3.06-9.21,5.28-14.06,7.44-12.73,5.69-25.87,10.26-39.23,14.26-6.42,1.92-12.89,3.62-19.34,5.43-.23.07-.47.13-.64.17Z"/>
                <path class="cls-3" d="M366.74,192.77c-.35,2.61-.77,5.15-1.43,7.64-2.4,8.95-4.68,17.94-7.85,26.66-1.42,3.91-2.88,7.81-4.44,11.68-.08.19-.15.38-.23.57-.2.49-.49.88-1.09.74-.51-.12-.7-.63-.48-1.3.14-.43.32-.84.48-1.26,3.23-8.16,6.28-16.39,8.54-24.89,1.31-4.93,2.88-9.79,3.92-14.8.34-1.64.58-3.3.87-4.95.02-.12.02-.24.04-.37.06-.54.27-.96.9-.95.52,0,.8.44.79,1.17,0,.04,0,.08,0,.06Z"/>
                <path class="cls-3" d="M285.76,214.96c0,.4-.21.7-.45.98-.48.56-.97,1.1-1.46,1.65-4.16,4.67-8.32,9.35-12.91,13.61-3.57,3.31-7.25,6.49-11.07,9.51-.25.2-.53.39-.82.53-.38.18-.73.04-.97-.29-.21-.29-.2-.65.02-.92.2-.25.48-.44.73-.65,6.03-4.85,11.85-9.92,17.11-15.61,2.75-2.97,5.42-6.01,8.13-9.02.14-.15.26-.32.43-.43.54-.36,1.21-.01,1.25.62Z"/>
                <path class="cls-3" d="M267.24,251.23c-.65-.01-1.02-.67-.63-1.22.21-.29.52-.52.8-.75,5.03-4.01,9.76-8.34,13.86-13.32,2.58-3.12,5.06-6.32,6.95-9.93.09-.18.19-.37.32-.52.23-.28.54-.39.88-.24.38.16.56.47.52.88-.05.46-.31.84-.52,1.24-1.4,2.6-3.15,4.97-4.95,7.3-4.67,6.06-10.17,11.3-16.16,16.02-.57.45-.77.54-1.07.53Z"/>
                <path class="cls-3" d="M292.86,231.1c-.06.13-.15.36-.26.57-4.09,8.17-9.23,15.6-15.69,22.09-.98.98-2.01,1.92-3.03,2.87-.18.17-.36.33-.57.45-.35.21-.71.18-1.01-.12-.3-.31-.31-.66-.07-1,.16-.23.37-.44.58-.63,7.35-6.66,13.19-14.47,17.68-23.3.28-.54.59-1.08.93-1.58.23-.33.6-.44.98-.25.31.16.48.43.46.9Z"/>
              </g>
            </g>
          </g>
          <g>
            <path class="cls-9" d="M204.55,519.72c1.23-4.24,2.32-38.52,3.34-42.81,3.61-15.19,7.56-30.29,11.25-45.46,1.83-7.54,3.64-15.09,5.38-22.66,1.17-5.1,1.81-10.3,2.65-15.46.35-2.15-.33-2.65-.86-4.75-.96-3.8-7.64-15.65-8.25-15.7-3.05-.27-1.38-.15-4.43-.44-5.7-.54-11.38-1.17-17.07-1.83-3.04-.35-6.1-.64-9.15-.85-6.56-.47-13.13-.89-19.68-1.54-2.2-.22-4.36-.68-6.52-1.14-.4-.09-.78-.23-1.15-.42-.65-.34-.94-.87-.85-1.61.6-4.99,1.18-9.99,1.78-14.98.5-4.1,1.15-8.17,1.68-12.27.19-1.47.51-2.96.84-4.43.33-1.46,1.27-2.44,2.54-3.15,1-.56,2.09-.91,3.18-1.27,12.65-4.21,25.09-8.93,37.12-14.71,4.28-2.05,8.33-4.53,12.51-6.76,10.97-5.84,21.11-12.93,31.06-20.33,7.78-5.8,15.91-11.05,24.59-15.42.86-.43,1.58-.44,2.42,0,3.82,1.97,7.74,3.69,11.8,5.11,5.2,1.82,10.57,2.83,16.05,3.3,7.63.67,15.28.67,22.92.19,10.39-.65,20.33-3.08,29.65-7.85,2.35-1.2,4.51-2.65,6.31-4.6.72-.78,1.46-1.56,1.85-2.57.28-.72.81-.99,1.53-.98,1.64.03,3.27.06,4.91.1,5.2.11,10.37.45,15.5,1.37,1.77.31,3.59.3,5.36.59,7.49,1.21,14.79,3.03,21.56,6.64,6.69,3.56,12.51,8.11,17.38,13.95,5.13,6.15,9.59,12.72,13.43,19.74,1.79,3.26,3.73,6.44,5.28,9.83,1.86,4.09,3.5,8.28,5.07,12.49,1.04,2.79,2.07,5.6,3.26,8.33.75,1.72,1.12,3.5.96,5.37-.23,2.89-.31,5.81-.72,8.67-.82,5.73-2.22,11.31-4.93,16.48-.93,1.78-1.98,3.48-3.24,5.05-2.42,2.99-5,5.84-7.7,8.58-2.93,2.97-6.33,5.28-10.05,7.15-2.45,1.23-4.91,2.43-7.46,3.41-.9.35-.91.36-.85,1.34.24,4.49.23,8.99.23,13.49,0,5.49.45,10.94,1.02,16.4.6,5.78.81,11.58.91,17.39.1,6.02.66,12,1.32,17.98.82,7.4,1.66,14.79,2.08,22.22.16,2.94.47,35.87.71,38.8h-226.51Z"/>
            <g>
              <path class="cls-13" d="M228.39,329.68c-.38,3.58-.73,7.16-1.14,10.73-.7,6.13-1.48,12.26-2.03,18.4-.04.49-.01.98-.04,1.47-.06.98-.65,1.68-1.52,1.81-.91.14-1.72-.41-2.04-1.38-.19-.56-.16-1.13-.11-1.7.35-3.5.69-7,1.07-10.49.52-4.75,1.08-9.5,1.6-14.25.2-1.83.45-3.65.5-5.49.03-1.11.73-1.84,1.7-1.89.94-.05,1.76.65,1.93,1.7.06.36,0,.73,0,1.1.02,0,.04,0,.06,0Z"/>
              <g>
                <path class="cls-13" d="M244.23,451.69c-.02.45-.15.88-.43,1.25-.25.32-.51.64-.8.93-7.28,7.52-14.25,15.32-21.2,23.14-1.14,1.28-2.26,2.59-3.59,3.68-.35.28-.7.57-1.12.74-.83.33-1.68.09-2.18-.61-.49-.68-.43-1.58.15-2.26.05-.06.11-.12.17-.18,3.5-2.99,6.27-6.65,9.35-10.04,5.39-5.92,10.79-11.85,16.32-17.63.63-.66,1.32-.96,2.19-.64.72.27,1.05.86,1.14,1.62Z"/>
                <path class="cls-13" d="M216.14,471.94c-1.2,0-2.06-1.33-1.56-2.51.13-.31.35-.55.57-.79,4.69-5.13,9.37-10.27,14.07-15.38,2.6-2.83,5.19-5.67,8.03-8.27.51-.47,1.01-.97,1.64-1.28.92-.46,1.87-.25,2.41.51.54.77.45,1.75-.32,2.43-5.28,4.61-9.77,9.99-14.53,15.09-2.45,2.63-4.81,5.35-7.23,8.01-.52.57-1.09,1.11-1.65,1.64-.37.35-.82.52-1.42.55Z"/>
                <path class="cls-13" d="M226.4,483.03c-.77-.05-1.36-.36-1.69-1.05-.35-.72-.23-1.53.45-2.12.9-.78,1.71-1.63,2.51-2.51,5.77-6.31,11.54-12.61,17.31-18.92.28-.3.56-.61.88-.85.76-.57,1.71-.51,2.35.1.61.58.73,1.48.28,2.25-.16.28-.38.53-.6.77-6.13,6.7-12.25,13.4-18.38,20.1-.55.6-1.12,1.2-1.78,1.68-.4.3-.85.48-1.33.55Z"/>
                <path class="cls-13" d="M257.82,465.23c-.01.77-.51,1.26-.99,1.77-2.7,2.9-5.41,5.79-8.1,8.7-1.83,1.98-3.64,3.98-5.35,6.06-.23.28-.48.56-.76.79-.76.6-1.68.59-2.36,0-.67-.59-.81-1.52-.33-2.34.14-.24.33-.46.52-.68,4.43-5.25,9.14-10.24,13.86-15.22.25-.26.53-.53.84-.7,1.23-.69,2.71.22,2.67,1.62Z"/>
                <path class="cls-13" d="M220.3,458.86c-1.36-.04-2.16-1.24-1.71-2.44.1-.26.27-.51.45-.72,3.8-4.38,7.48-8.86,11.38-13.16.25-.27.5-.55.79-.77.76-.58,1.7-.53,2.35.08.65.61.76,1.53.25,2.35-.13.21-.29.39-.45.58-3.58,3.97-7.04,8.06-10.49,12.15-.39.47-.81.91-1.24,1.35-.39.4-.87.6-1.33.58Z"/>
                <path class="cls-13" d="M252.3,482.65c-.75,0-1.26-.3-1.6-.87-.36-.62-.34-1.25.03-1.86.1-.17.24-.34.39-.46,3.49-2.84,6.47-6.23,9.8-9.23.36-.33.71-.68,1.1-.97.98-.73,2.08-.65,2.73.18.63.8.53,1.79-.38,2.61-2.57,2.34-5.01,4.8-7.51,7.21-1,.96-1.98,1.95-3.09,2.79-.46.35-.95.64-1.48.61Z"/>
              </g>
              <path class="cls-13" d="M415.96,355.19c-.04.53-.06.93-.27,1.31-.38.69-1.06,1.05-1.83.96-.79-.1-1.35-.63-1.54-1.52-.76-3.63-1.52-7.27-2.26-10.91-.25-1.23.26-2.13,1.3-2.4,1.02-.26,1.91.33,2.26,1.54.12.39.18.8.26,1.2.21,1.04.39,2.09.62,3.12.39,1.79.82,3.58,1.22,5.37.11.48.18.96.25,1.33Z"/>
              <g>
                <path class="cls-13" d="M335.84,454.15c-1.14.03-2.03-.98-1.81-2.1.05-.27.17-.55.3-.79,3.54-6.3,7.08-12.6,10.63-18.9.52-.92,1.1-1.82,1.68-2.71.22-.34.48-.67.79-.92.62-.51,1.54-.52,2.17-.07.69.49.94,1.37.61,2.18-.06.15-.14.3-.23.43-3.87,6.11-7.21,12.53-10.73,18.83-.58,1.03-1.18,2.05-1.81,3.06-.36.58-.88.96-1.6.99Z"/>
                <path class="cls-13" d="M341.88,426.01c-.03.72-.38,1.27-.74,1.82-2.96,4.56-5.82,9.19-8.63,13.84-1.01,1.68-2,3.38-3.01,5.06-.3.49-.61.98-1,1.39-.7.75-1.68.81-2.44.23-.71-.54-.93-1.46-.47-2.31.45-.82,1-1.59,1.48-2.4,3.56-6.07,7.26-12.05,11.07-17.95.22-.34.44-.7.74-.97.55-.52,1.21-.65,1.92-.33.71.32,1.02.9,1.08,1.62Z"/>
                <path class="cls-13" d="M317.9,447.06c-.79.02-1.34-.29-1.69-.91-.38-.67-.32-1.36.13-1.96,3.19-4.31,5.76-9.02,8.63-13.53,1.38-2.17,2.65-4.41,3.95-6.63.74-1.26,1.7-1.69,2.68-1.16.98.52,1.22,1.63.55,2.88-.63,1.19-1.3,2.36-2.01,3.51-3.09,5.01-6.19,10-9.3,15-.47.76-.97,1.52-1.62,2.15-.39.38-.83.66-1.33.65Z"/>
                <path class="cls-13" d="M356.62,435.94c-.04.76-.35,1.42-.72,2.06-1.58,2.76-3.18,5.51-4.77,8.27-1.86,3.22-3.71,6.43-5.57,9.65-.31.53-.62,1.06-.99,1.54-.71.93-1.74,1.14-2.58.58-.85-.57-1.04-1.58-.46-2.6,1.16-2.01,2.35-4.01,3.52-6.02,2.3-3.95,4.59-7.9,6.88-11.86.47-.81.88-1.65,1.28-2.5.38-.82,1.26-1.17,2.04-.95.81.23,1.35.97,1.36,1.83Z"/>
                <path class="cls-13" d="M348.88,462.03c-1.06.02-1.87-.8-1.82-1.87.02-.47.23-.85.47-1.24,3.5-5.52,6.79-11.17,10.08-16.82.1-.18.19-.37.31-.53.53-.7,1.41-.96,2.18-.65.77.31,1.2,1.1,1.06,2-.11.75-.53,1.37-.91,2-2.54,4.29-5.09,8.57-7.65,12.85-.67,1.12-1.37,2.23-2.11,3.3-.49.72-.96.94-1.62.95Z"/>
                <path class="cls-13" d="M311,442.42c-1.48-.02-2.31-1.37-1.67-2.62.33-.65.8-1.23,1.17-1.87,3.01-5.06,6.24-9.98,9.76-14.7.17-.23.32-.48.52-.68.61-.61,1.43-.72,2.14-.34.75.41,1.1,1.23.87,2.09-.12.48-.41.89-.7,1.28-3.47,4.66-6.64,9.52-9.61,14.51-.33.56-.71,1.1-1.11,1.61-.37.47-.88.73-1.37.71Z"/>
                <path class="cls-13" d="M367.28,449.55c.04.66-.31,1.18-.62,1.7-2.14,3.62-4.22,7.28-6.24,10.97-.83,1.5-1.64,3.01-2.48,4.51-.24.43-.51.84-.88,1.17-.68.58-1.56.63-2.26.13-.69-.49-.97-1.37-.58-2.18.39-.81.91-1.55,1.33-2.34,2.55-4.75,5.19-9.45,7.94-14.09.23-.38.46-.79.77-1.1.53-.52,1.19-.7,1.91-.38.7.31,1.07.85,1.12,1.61Z"/>
                <path class="cls-13" d="M374.51,455.3c-.05.5-.21.95-.43,1.39-2.65,5.15-5.3,10.31-7.96,15.46-.22.43-.46.87-.74,1.27-.67.96-1.68,1.23-2.54.72-.86-.51-1.12-1.54-.6-2.57.76-1.49,1.54-2.97,2.31-4.45,2.1-4.06,4.2-8.12,6.3-12.18.17-.32.34-.67.59-.92.53-.53,1.17-.72,1.91-.42.72.29,1.17.95,1.16,1.71Z"/>
                <path class="cls-13" d="M303.61,438.93c-1.24,0-2.11-1.2-1.7-2.37.08-.23.2-.45.34-.65,3.23-4.47,6.01-9.24,9.07-13.83.32-.48.61-.97.98-1.4.69-.8,1.75-.93,2.52-.35.74.55.92,1.5.44,2.42-.07.14-.17.28-.26.41-2.72,4.22-5.44,8.45-8.18,12.66-.51.79-1.07,1.54-1.65,2.28-.39.5-.89.84-1.57.83Z"/>
                <path class="cls-13" d="M373.43,476.63c-1.51,0-2.34-1.55-1.53-2.85.65-1.04,1.34-2.05,1.93-3.13,1.91-3.48,3.82-6.95,5.74-10.42.3-.53.58-1.09,1.07-1.49.55-.46,1.17-.57,1.84-.31.67.26,1.03.79,1.12,1.49.07.46-.11.88-.33,1.28-2.3,4.15-4.6,8.29-6.91,12.44-.42.75-.88,1.47-1.42,2.14-.41.5-.92.8-1.5.84Z"/>
                <path class="cls-13" d="M299.57,432.19c-.71-.06-1.26-.36-1.58-1.01-.32-.64-.26-1.28.15-1.85.53-.73,1.12-1.41,1.64-2.14,1.87-2.63,3.75-5.25,5.74-7.79.45-.58.91-1.16,1.43-1.67.85-.82,1.88-.83,2.63-.11.71.68.77,1.68.06,2.54-2.72,3.27-5.13,6.77-7.62,10.21-.33.46-.73.88-1.13,1.28-.36.36-.82.52-1.32.54Z"/>
                <path class="cls-13" d="M379.55,478.36c-1.37-.04-2.27-1.49-1.55-2.66,2.42-3.98,4.52-8.14,7.12-12.01.23-.34.48-.66.82-.91.7-.5,1.64-.47,2.27.06.62.53.8,1.33.46,2.11-.06.15-.15.29-.24.43-2.23,3.33-4.17,6.83-6.12,10.33-.36.64-.72,1.28-1.2,1.84-.42.49-.93.79-1.55.8Z"/>
                <path class="cls-13" d="M386.74,479.57c-1.28-.03-2.11-1.35-1.58-2.55.28-.63.68-1.21.99-1.83,1.35-2.7,2.68-5.41,4.02-8.12.22-.44.44-.88.74-1.27.61-.8,1.6-.99,2.4-.51.75.45,1.05,1.35.73,2.24-.05.15-.13.3-.2.45-1.51,3.03-3,6.07-4.52,9.1-.29.58-.63,1.14-1.01,1.68-.37.53-.92.79-1.57.82Z"/>
                <path class="cls-13" d="M411.67,467.31c.02.47-.17.88-.41,1.27-1.76,2.75-3.48,5.53-5.13,8.35-.18.31-.42.61-.69.86-.71.66-1.63.72-2.35.18-.76-.56-.96-1.51-.45-2.41.5-.89,1.05-1.75,1.58-2.62,1.27-2.05,2.54-4.1,3.82-6.14.19-.31.42-.61.7-.85.58-.49,1.26-.56,1.95-.22.64.32.95.87.99,1.58Z"/>
                <path class="cls-13" d="M418,476.5c-1.46-.01-2.24-1.5-1.44-2.84.5-.84,1.08-1.63,1.53-2.51,1.02-2,2.05-3.99,3.08-5.99.21-.4.39-.81.7-1.14.58-.6,1.42-.76,2.13-.41.73.36,1.1,1.09.95,1.94-.05.28-.15.55-.28.8-1.29,2.5-2.57,5.01-3.89,7.5-.34.65-.78,1.24-1.22,1.83-.38.52-.89.83-1.57.81Z"/>
                <path class="cls-13" d="M411.85,476.94c-.67-.03-1.23-.32-1.58-.95-.37-.68-.31-1.36.15-1.96,1.74-2.24,2.98-4.78,4.53-7.13.27-.41.51-.84.79-1.24.19-.26.39-.53.64-.73.61-.49,1.42-.51,2.06-.11.63.39.97,1.16.78,1.91-.08.31-.23.61-.4.89-1.47,2.41-2.95,4.81-4.42,7.21-.32.52-.69,1.01-1.13,1.45-.39.38-.85.63-1.44.67Z"/>
                <path class="cls-13" d="M402.37,468.83c.01.25-.16.62-.39.97-1.6,2.43-2.91,5.01-4.1,7.66-.24.52-.49,1.04-.88,1.46-.7.76-1.64.91-2.43.39-.78-.51-1.03-1.45-.57-2.38,1.33-2.67,2.58-5.38,4.11-7.94.36-.6.69-1.21,1.23-1.67.63-.52,1.33-.62,2.06-.26.64.32.95.87.97,1.77Z"/>
                <path class="cls-13" d="M303.39,415.33c-.05.54-.28,1.06-.62,1.53-1.59,2.22-3.19,4.43-4.79,6.65-.24.33-.5.65-.85.87-.72.45-1.53.4-2.16-.13-.61-.52-.81-1.36-.47-2.11.1-.22.24-.43.38-.62,1.7-2.39,3.41-4.78,5.12-7.16.58-.81,1.32-1.09,2.11-.82.77.26,1.29.97,1.28,1.8Z"/>
              </g>
            </g>
          </g>
        </g>
        <g>
          <path class="cls-7" d="M321.29,247.39c-2.78-.11-5.56-.27-8.29-.86-3.85-.83-7.56-2.08-11.05-3.94-1.49-.79-2.8-1.84-3.96-3.06-.17-.18-.33-.36-.47-.56-.23-.34-.26-.69.02-1.02.31-.37.71-.39,1.11-.2.18.08.34.23.47.38,1.76,1.98,4.03,3.17,6.41,4.19,6.49,2.79,13.3,3.61,20.28,3.19,4.07-.25,7.85-1.51,11.37-3.53,3.41-1.96,6.67-4.13,9.62-6.75.27-.24.55-.5.87-.67.3-.16.64-.12.91.13.31.29.36.65.18,1.01-.13.25-.33.47-.55.65-4.4,3.77-9.11,7.06-14.53,9.22-3.99,1.58-8.16,1.96-12.4,1.81Z"/>
          <path class="cls-10" d="M417.9,297.49c.54-.22.95-.42,1.38-.56,1.91-.62,3.51.35,3.73,2.33.08.73.25,1.04,1.06,1.08.86.04,1.32.75,1.58,1.52.5,1.48.43,2.98.15,4.49-.61,3.24-1.77,6.29-3.23,9.23-2.34,4.7-5.24,9.06-8.27,13.33-2.72,3.84-5.55,7.59-8.85,10.97-.48.5-.59,1.01-.56,1.66.17,2.86.5,5.7.91,8.53.68,4.74,1.46,9.45,2.94,14.02.37,1.15.69,2.33,1.36,3.48,1.73-1.55,3.29-3.15,4.68-4.91,3-3.8,5.52-7.91,7.98-12.06,1.27-2.15,2.4-4.37,3.79-6.45.41-.61.84-1.21,1.43-1.67,1.09-.86,2.09-.59,2.62.71.17.43.21.87.24,1.32.03.44-.08.89.1,1.35.63,0,1.16-.35,1.75-.49,1.47-.36,2.28.2,2.4,1.72,0,.12.03.25,0,.37-.16.77.02,1.21.87,1.53.78.29.92,1.19.98,1.99.09,1.24-.11,2.45-.36,3.65-1.17,5.5-3.01,10.77-5.16,15.96-2.39,5.76-5.37,11.2-8.89,16.34-.18.26-.42.5-.47.85.22.25.45.09.66.02,10.38-3.32,18.44-9.67,24.44-18.69,2.38-3.57,3.91-7.54,5.01-11.67,1.25-4.7,2.44-9.41,3.7-14.11.67-2.49,1.52-4.92,2.67-7.24.51-1.03,1.07-2.02,1.75-2.95,1.42-1.93,3.21-3.37,5.53-4.07,1.19-.36,1.15-.45.91-1.53-.77-3.36-1.11-6.79-1.02-10.23.22-7.91,2.36-15.23,7.07-21.7,1.58-2.16,3.48-4.02,5.69-5.53.68-.46,1.39-.85,2.13-1.21,2.42-1.2,4.8-1.14,7.17.14.18.1.38.17.54.28.44.32.79.21,1.2-.12,2.83-2.33,6.13-3.59,9.74-3.96,5.14-.54,9.63.83,13.12,4.85,3.52,4.06,5.47,8.73,5.84,14.12.71,10.14-2.35,19.01-8.63,26.88-.94,1.18-1.84,2.4-2.81,3.57-.53.64-.59,1.22-.29,2.01,1.3,3.36,1.96,6.85,1.55,10.45-.36,3.14-1.26,6.16-2.5,9.07-1.8,4.23-4.53,7.84-7.54,11.26-3.8,4.33-8.16,8.01-12.81,11.38-8.12,5.88-16.77,10.79-26.16,14.34-7.02,2.66-14.27,4.46-21.71,5.46-3.81.51-7.66.65-11.5.09-2.08-.3-4.04-.99-5.93-1.9-.96-.46-1.92-.91-2.85-1.43-.53-.29-.85-.23-1.24.23-1.35,1.59-2.82,3.07-4.31,4.53-7.43,7.3-16.18,12.55-25.79,16.43-7.36,2.98-15,4.83-22.9,5.62-2.81.28-5.64.19-8.46.34-9.74.52-19.25-1.04-28.61-3.5-12.6-3.32-24.55-8.23-35.59-15.21-11.87-7.5-22.42-16.57-31.54-27.25-5.04-5.9-8.98-12.56-12.63-19.39-3.58-6.72-6.49-13.75-9.52-20.72-1.36-3.11-2.75-6.21-3.98-9.36-1.87-4.8-4.5-9.16-7.48-13.33-3.9-5.47-8.28-10.55-12.69-15.6-2.71-3.11-5.38-6.27-8.06-9.41-.69-.81-1.37-1.63-1.92-2.55-.69-1.16-.25-2.04,1.1-2.11,1.18-.07,2.37-.08,3.56,0,3.63.23,7.28.14,10.91.46.94.08,1.87.15,2.81.24.52.05.93-.08,1.31-.48,4.82-5.04,10.21-9.43,15.55-13.88,3.11-2.6,6.32-5.07,9.75-7.22,1.54-.96,2.32-2.23,2.68-4,.56-2.77.88-5.57,1.17-8.37.3-2.85.82-5.66,1.28-8.49.04-.24.11-.48.2-.71.42-1.14,1.19-1.41,2.21-.76.83.53,1.54,1.21,2.23,1.92,2.02,2.09,3.83,4.36,5.48,6.76,1.12,1.61,2.29,3.19,3.38,4.82.62.93,1.43,1.55,2.48,1.88.78.24,1.56.48,2.34.73,4.57,1.44,8.6,3.91,12.57,6.54,5.23,3.47,8.56,8.33,10.71,14.11,1.4,3.76,2.05,7.65,2.21,11.64.03.83-.27,1.61-.46,2.4-.14.58-.06,1,.39,1.42,1.52,1.43,3.08,2.81,4.69,4.14.51.42.78.34,1.18-.15,1.89-2.36,3.81-4.7,5.73-7.04,3.96-4.8,8.55-8.9,13.71-12.36,4.79-3.2,10.08-4.79,15.87-4.61,2.67.08,5.27.67,7.8,1.5,2.1.68,4.16,1.48,6.19,2.34,1.13.48,2.19,1.1,3.19,1.82.46.34.89.72,1.25,1.17.99,1.24.9,2.5-.27,3.59-.58.54-1.25.92-2,1.16-.43.14-.61.36-.43.81.19.46.24.95.25,1.44.02,1.91-1.28,3.36-3.19,3.56-.82.08-1.64.05-2.45-.09-.3-.05-.55-.05-.76.22-1.48,1.93-3.48,2.05-5.65,1.65-1.34-.25-2.62-.67-3.8-1.33-.55-.31-.94-.22-1.43.14-6.71,4.94-11.78,11.16-14.85,18.95-.06.15-.1.32-.18.46-.3.52-.06.81.4,1.07,1.1.63,2.22,1.22,3.37,1.75,3.69,1.67,7.51,2.99,11.35,4.26,6.95,2.29,13.96,4.37,21.13,5.85,7.82,1.61,15.69,2.18,23.66,1.49,3.27-.28,6.49-.79,9.67-1.55.62-.15,1.14-.41,1.62-.82,1.05-.92,1.96-1.97,2.88-3.01,3.04-3.49,5.83-7.17,8.64-10.84,2.24-2.92,4.53-5.8,6.82-8.68.81-1.03,1.7-1.99,2.7-2.84.46-.4.95-.78,1.47-1.1,1.33-.82,2.18-.56,2.86.83.09.18.17.36.29.61Z"/>
          <g>
            <path class="cls-16" d="M388.15,373.03c-3.43.05-8.04-.9-12.65-1.83-6.85-1.38-13.71-2.71-20.45-4.58-12.65-3.51-24.72-8.44-36.16-14.92-6.66-3.77-13.23-7.68-19.08-12.66-4.42-3.76-8.92-7.45-13-11.59-1.46-1.48-2.81-3.08-4.17-4.66-.75-.87-1.34-1.85-1.75-2.94-.39-1.04-.31-1.44.6-2.1.66-.48,1.37-.89,2.08-1.3,1.95-1.14,3.83-2.36,5.48-3.91,3.95-3.72,6.18-8.27,6.57-13.69.07-.94.08-1.88.18-2.81.16-1.41.98-1.83,2.23-1.14,1.33.73,2.54,1.64,3.72,2.58,2.46,1.96,4.92,3.93,7.38,5.9,4.07,3.27,8.44,6.03,13.19,8.21,3.93,1.81,7.88,3.59,11.85,5.33,6.07,2.65,12.44,4.21,18.92,5.45,5.19.99,10.42,1.57,15.65,2.24,6.44.83,12.89,1.66,19.12,3.65,5.17,1.65,9.85,4.14,13.85,7.86,3.05,2.84,5.04,6.11,5.42,10.38.35,3.95.9,7.88.86,11.86-.02,1.89-.28,3.75-.94,5.53-.93,2.54-2.51,4.53-4.83,5.99-3.92,2.46-8.22,3.3-14.07,3.15Z"/>
            <path class="cls-16" d="M267.66,295.25c-4.45-.16-8.48-1.06-12.44-2.24-9.6-2.85-19.04-6.14-28.09-10.49-.51-.25-1.06-.43-1.56-.7-.65-.35-.75-.86-.24-1.4.61-.65,1.28-1.27,1.95-1.86,2.24-1.97,4.54-3.87,6.94-5.65,3.64-2.71,7.06-5.7,10.56-8.58,1.29-1.07,2.62-2.09,3.99-3.06,1.03-.73,1.99-.74,3.05-.02,1.49,1.01,2.91,2.11,4.3,3.25,5,4.09,9.98,8.2,14.64,12.69,1.65,1.59,3.26,3.22,4.61,5.08.99,1.37,1.78,2.84,2.19,4.49.44,1.77.16,3.36-.98,4.85-1.65,2.18-3.91,3.13-6.51,3.47-.89.12-1.79.13-2.4.17Z"/>
            <path class="cls-14" d="M252.29,304.75c-2.36.03-4.27-1.86-4.29-4.24-.03-2.52,1.71-4.41,4.06-4.42,2.62-.02,4.58,1.84,4.61,4.36.03,2.39-1.89,4.28-4.38,4.3Z"/>
            <path class="cls-14" d="M273.98,274.4c.02-2.56,1.75-4.35,4.17-4.3,2.25.04,4.16,1.88,4.13,4-.03,2.37-2,4.39-4.22,4.4-2.46,0-4.3-2.13-4.09-4.1Z"/>
          </g>
          <g>
            <path class="cls-3" d="M309.02,344.46c.2.49.37.82.48,1.17.58,1.81-.53,3.44-2.41,3.54-.69.04-1.38,0-2.1,0,.08.48.2.95.23,1.43.09,1.58-.79,2.57-2.36,2.68-.99.07-1.95-.14-2.9-.39-2.37-.64-4.66-1.5-7.02-2.18-4.49-1.29-8.95-1.12-13.47-.26-4.62.89-8.9,2.7-13.17,4.57-4.42,1.94-8.65,4.27-12.96,6.42-.87.44-1.66,1.05-2.5,1.56-1.09.66-1.57.56-2.19-.52-1.93-3.32-3.87-6.64-5.77-9.98-1.77-3.1-3.1-6.4-4.08-9.83-.41-1.45-.33-1.72.91-2.56,3.26-2.2,6.74-4.02,10.25-5.77,4.24-2.12,8.53-4.12,13.03-5.65,3.55-1.21,7.2-1.83,10.92-2.14,3.1-.26,6.21-.43,9.32-.28,10.58.51,19.83,4.16,27.37,11.77.92.93,1.81,1.9,2.26,3.17.5,1.43-.16,2.65-1.63,3.01-.39.1-.81.12-1.21.17-.28.03-.56.04-.99.06Z"/>
            <path class="cls-3" d="M353.54,284.95c.2.51.38.87.49,1.26.47,1.64-.22,3.15-1.77,3.85-1.14.51-2.35.71-3.59.57-.49-.06-.73.09-.95.52-.86,1.67-2.28,2.33-4.12,2.32-1.82-.02-3.47-.6-4.95-1.57-.96-.63-1.65-.5-2.5.17-2.43,1.93-5.04,3.62-7.25,5.82-.17.17-.4.29-.57.46-.35.37-.65.25-.92-.08-.58-.68-1.19-1.35-1.74-2.06-3.29-4.22-6.58-8.45-9.86-12.67-.74-.95-.71-.91.17-1.73,1.68-1.56,3.57-2.85,5.37-4.25.9-.7,1.88-1.31,2.93-1.76,3.69-1.56,7.43-2.98,11.47-3.34,3.15-.28,6.2.08,9.15,1.2,2.1.8,4.16,1.68,6.24,2.52,1.17.48,2.31,1.04,3.38,1.72.62.39,1.22.83,1.74,1.35,1.34,1.33,1.29,3.01-.11,4.29-.36.33-.76.62-1.22.81-.45.19-.9.38-1.39.59Z"/>
            <path class="cls-3" d="M431.15,343.83c.45-.3.83-.6,1.25-.84,1.52-.88,2.86-.31,3.24,1.42.15.67.14,1.38.21,2.08.24.23.43-.04.64-.11,1.15-.41,2.03.08,2.21,1.31.18,1.18.03,2.36-.17,3.53-.81,4.61-2.39,8.97-4.22,13.25-1.17,2.74-2.4,5.45-3.82,8.07-.37.68-.5.77-1.23.52-.35-.12-.68-.28-1.01-.45-4.13-2.15-8.14-4.52-12.14-6.89-.18-.1-.35-.22-.51-.34-.58-.44-1.46-.7-1.61-1.43-.14-.69.66-1.14,1-1.73,1.21-2.08,2.5-4.11,3.63-6.24,1.54-2.92,3.12-5.82,4.34-8.9.67-1.71,1.65-3.28,2.77-4.73.74-.95,1.66-1.72,3.04-1.38.98.24,1.67.83,2.04,1.77.13.34.22.69.34,1.1Z"/>
            <path class="cls-3" d="M211.88,283.56c2.58,0,5.15-.02,7.73.01,1.07.02,2.01-.26,2.85-.92.61-.48,1.23-.94,1.87-1.39.9-.64,1.44-.58,2.06.34,1.02,1.51,1.57,3.23,1.97,4.99.75,3.38.46,6.74-.36,10.08-.81,3.27-2.08,6.36-3.56,9.37-.47.95-.92,1.91-1.42,2.85-.47.89-1.05,1.04-1.9.49-.3-.2-.58-.45-.83-.72-2.96-3.22-5.96-6.39-8.56-9.93-1.13-1.54-2.6-2.82-3.92-4.21-1.88-1.99-3.79-3.95-5.47-6.12-.42-.55-.84-1.12-1.17-1.72-.61-1.12-.35-1.92.76-2.56.62-.36,1.29-.49,2-.49,2.66,0,5.31,0,7.97,0,0-.02,0-.04,0-.06Z"/>
            <path class="cls-3" d="M254.76,324.6c-3.65.05-7.26-.45-10.87-.85-2.64-.29-5.28-.58-7.92-.89-1.95-.23-3.87-.63-5.72-1.29-.42-.15-.84-.33-1.22-.57-.49-.32-.69-.8-.48-1.38.19-.54.63-.79,1.27-.72.2.02.4.08.59.16,2.06.84,4.23,1.24,6.43,1.49,4.18.47,8.36.93,12.55,1.37,4.7.49,9.39.31,14.06-.35,3.8-.54,7.59-1.15,11.31-2.15,5.65-1.52,10.45-4.38,14.05-9.07,3.25-4.21,5.05-9.02,5.8-14.25.16-1.09.21-2.19.31-3.29.08-.95.47-1.41,1.19-1.41.7,0,1.21.52,1.22,1.41.02,1.6-.22,3.18-.5,4.75-1.24,6.82-4.05,12.83-9.18,17.62-3.55,3.31-7.76,5.45-12.42,6.6-6.71,1.67-13.52,2.77-20.46,2.83Z"/>
            <path class="cls-3" d="M285.61,295.59c-.06.45.15.63.26.84,1.85,3.55.25,7.13-3.62,8.11-.92.24-1.86.27-2.8.21-.68-.04-1.04-.36-1-.83.05-.63.51-.78,1.04-.81.57-.04,1.15-.03,1.71-.1,3.4-.43,4.73-3.27,2.92-6.18-.24-.38-.48-.76-.89-1.11-2.32,1.51-4.95,1.62-7.61,1.58-.62,0-1.23-.1-1.81-.27-1.24-.36-1.74-1.31-1.38-2.56.1-.35.22-.71.39-1.03,1.22-2.32,2.56-4.56,4.25-6.57.18-.22.39-.42.6-.61,1.65-1.52,2.91-1.46,4.38.26,1.5,1.75,2.05,3.87,2.28,6.1.1.97.07.97.99,1.16,1.29.27,2.52.13,3.65-.6,1.41-.9,2.01-2.44,1.52-4.03-.17-.54-.43-1.06-.64-1.59-.17-.44-.06-.81.36-1.04.37-.2.71-.09,1,.19.09.08.15.19.22.29,1.81,2.73.96,6.25-1.92,7.82-.91.5-1.88.78-2.93.78-.32,0-.65,0-.98,0Z"/>
            <path class="cls-3" d="M277.89,268.81c.34.02.7.03,1.04.21,1.25.65,2.31,1.52,3.07,2.72.36.57.47,1.21.34,1.88-.22,1.09-1.17,1.83-2.24,1.56-1.85-.46-3.36-1.52-4.24-3.23-.79-1.53.3-3.14,2.04-3.14Z"/>
            <path class="cls-3" d="M252.77,295.84c1.43.25,2.67,1.12,3.49,2.52.48.83.21,2.15-.43,2.72-.65.59-1.7.64-2.61.03-.99-.66-1.9-1.43-2.47-2.49-.76-1.43.21-2.89,2.02-2.78Z"/>
            <path class="cls-3" d="M273.96,311.78c-.02.64-.56,1.12-1.22,1.08-.68-.03-1.22-.59-1.23-1.27,0-.65.51-1.18,1.14-1.18.67,0,1.33.69,1.31,1.36Z"/>
            <path class="cls-3" d="M271.27,301.23c0-.64.55-1.16,1.17-1.13.62.03,1.13.6,1.08,1.23-.04.58-.54,1.06-1.12,1.07-.63,0-1.14-.52-1.13-1.17Z"/>
            <path class="cls-3" d="M272.06,306.59c.03.65-.47,1.18-1.11,1.19-.59,0-1.09-.45-1.14-1.04-.05-.64.42-1.2,1.05-1.25.62-.05,1.17.46,1.2,1.1Z"/>
            <path class="cls-3" d="M290.72,280.27c.63-.01,1.17.52,1.17,1.15,0,.62-.57,1.16-1.18,1.14-.57-.02-1.07-.52-1.1-1.09-.03-.64.47-1.18,1.11-1.19Z"/>
            <path class="cls-3" d="M264.28,311.16c.61.01,1.15.58,1.12,1.2-.03.62-.61,1.14-1.21,1.1-.58-.04-1.04-.53-1.05-1.13,0-.65.51-1.18,1.14-1.17Z"/>
            <path class="cls-3" d="M285.25,284.94c.01-.65.53-1.14,1.17-1.11.64.03,1.12.57,1.08,1.21-.04.6-.52,1.04-1.12,1.05-.65,0-1.15-.5-1.14-1.15Z"/>
            <path class="cls-3" d="M277.3,308c.64-.03,1.16.47,1.16,1.13,0,.64-.52,1.18-1.13,1.17-.57-.01-1.08-.5-1.12-1.08-.04-.63.46-1.19,1.09-1.22Z"/>
            <path class="cls-3" d="M282.46,281.54c.66-.02,1.15.46,1.15,1.12,0,.64-.52,1.16-1.15,1.14-.58-.02-1.07-.5-1.1-1.08-.04-.64.45-1.17,1.1-1.18Z"/>
            <path class="cls-3" d="M266.37,302.96c.64,0,1.15.54,1.12,1.18-.03.59-.5,1.06-1.1,1.07-.64.02-1.18-.49-1.19-1.11,0-.62.53-1.15,1.17-1.14Z"/>
            <path class="cls-3" d="M289.52,277.93c-.03.66-.55,1.11-1.22,1.06-.59-.05-1.05-.54-1.04-1.12,0-.63.54-1.15,1.17-1.13.64.02,1.12.55,1.09,1.2Z"/>
          </g>
          <path class="cls-6" d="M218,290.1c-.16,1.29-.54,2.75-1.17,4.13-.48,1.04-1.57,1.22-2.57.43-1.6-1.27-3.13-2.62-4.48-4.18-.27-.31-.54-.61-.78-.94-.92-1.28-.39-2.62,1.16-2.76,2.22-.2,4.41.11,6.55.71.94.26,1.32,1.09,1.3,2.61Z"/>
          <path class="cls-6" d="M253.89,250.54c0-.82-.01-1.63,0-2.45.02-.77.16-1.5,1-1.79.87-.29,1.5.16,2.02.79.75.92,1.34,1.95,1.89,3,.43.83.83,1.69,1.18,2.55.46,1.14.25,1.8-.76,2.54-.9.66-1.94,1.07-2.99,1.37-1.24.36-1.96-.19-2.1-1.5-.16-1.5-.29-3.01-.25-4.52Z"/>
          <g>
            <path class="cls-11" d="M471.32,336.09c-.03.12-.04.33-.12.51-.61,1.5-1.22,3.01-1.86,4.5-.23.53-.6.97-1.14,1.23-.49.24-.96.18-1.34-.21-.38-.39-.51-.9-.19-1.34,1.08-1.51,1.5-3.32,2.27-4.97.07-.15.12-.3.21-.44.31-.51.76-.72,1.35-.57.53.14.84.6.84,1.28Z"/>
            <path class="cls-11" d="M471.85,368.71c-.01.3-.17.54-.35.76-1.03,1.27-2.05,2.54-3.09,3.8-.21.25-.43.5-.69.68-.44.31-.92.3-1.37-.03-.44-.33-.57-.89-.32-1.43.08-.18.21-.35.34-.51.96-1.22,1.93-2.43,2.89-3.65.26-.32.54-.62.93-.78.88-.36,1.74.24,1.65,1.14Z"/>
            <path class="cls-11" d="M498.79,308.14c-.02.08-.03.25-.07.4-.41,1.36-.82,2.73-1.24,4.09-.12.39-.34.74-.71.96-.46.28-.93.31-1.37-.01-.44-.32-.62-.79-.4-1.3.61-1.43.92-2.95,1.42-4.41.12-.35.27-.69.61-.89.38-.22.78-.24,1.17-.04.43.23.62.63.61,1.19Z"/>
            <path class="cls-11" d="M485.44,314.37c-.05.27-.08.6-.16.91-.33,1.22-.63,2.45-1.02,3.65-.28.85-.93,1.17-1.6.93-.6-.22-.87-.82-.67-1.63.36-1.42.72-2.85,1.12-4.26.2-.71.76-1.05,1.38-.92.55.11.93.62.95,1.32Z"/>
            <path class="cls-11" d="M464.76,339.07c-.04.17-.04.55-.22.79-.59.81-.85,1.76-1.23,2.65-.18.41-.39.81-.74,1.11-.46.39-1.03.43-1.46.1-.44-.33-.63-.78-.42-1.29.58-1.39,1.17-2.78,1.82-4.14.31-.65.86-.85,1.41-.7.55.15.86.63.85,1.48Z"/>
            <path class="cls-11" d="M445.09,383.96c-.8.02-1.38-.72-1.13-1.48.08-.22.22-.44.38-.62.91-.99,1.82-1.98,2.77-2.93.66-.66,1.31-.7,1.83-.2.5.47.48,1.18-.12,1.84-.87.97-1.77,1.91-2.67,2.85-.28.3-.62.53-1.06.53Z"/>
            <path class="cls-11" d="M492.93,297.15c-.04.17-.09.45-.17.72-.3,1.01-.6,2.03-.91,3.04-.11.35-.22.7-.47.99-.4.45-.9.56-1.44.32-.5-.22-.77-.69-.63-1.2.42-1.53.88-3.05,1.39-4.54.21-.61.83-.83,1.4-.65.59.19.81.63.81,1.33Z"/>
            <path class="cls-11" d="M486.16,367.51c-.02.35-.17.67-.46.92-.88.78-1.77,1.56-2.65,2.34-.09.08-.19.16-.29.23-.76.53-1.39.53-1.85,0-.46-.53-.35-1.19.31-1.81.59-.56,1.2-1.1,1.8-1.64.3-.27.61-.53.92-.8.26-.21.56-.35.88-.39.69-.09,1.31.44,1.32,1.15Z"/>
            <path class="cls-11" d="M466.62,362.93c-.93,0-1.49-.92-.98-1.71.78-1.19,1.61-2.35,2.47-3.48.46-.6,1.09-.69,1.61-.33.52.35.72,1,.33,1.62-.71,1.14-1.49,2.23-2.27,3.32-.27.37-.67.58-1.16.58Z"/>
            <path class="cls-11" d="M453.77,381.08c.59.02,1.01.24,1.23.74.2.46.13.96-.26,1.22-1.23.81-2.25,1.87-3.4,2.78-.52.41-1.15.29-1.55-.14-.4-.44-.46-1.04,0-1.55.96-1.06,2.01-2.02,3.23-2.78.24-.15.53-.2.74-.27Z"/>
            <path class="cls-11" d="M495.19,326c-.02.1-.02.27-.08.42-.59,1.29-1.15,2.6-1.82,3.85-.35.66-1.01.79-1.56.49-.56-.3-.79-.89-.49-1.58.55-1.27,1.13-2.52,1.75-3.75.3-.6.88-.79,1.44-.62.47.15.76.58.76,1.19Z"/>
            <path class="cls-11" d="M497.5,346.64c-.79-.03-1.38-.84-1.02-1.56.68-1.34,1.53-2.6,2.55-3.71.39-.43.94-.46,1.45-.1.5.35.68.95.33,1.51-.74,1.17-1.55,2.3-2.35,3.42-.22.3-.57.46-.96.44Z"/>
            <path class="cls-11" d="M509.36,306.23c-.04.13-.09.36-.18.59-.38.94-.77,1.88-1.16,2.82-.13.3-.27.59-.51.82-.46.44-1.1.53-1.55.19-.48-.35-.65-.83-.41-1.4.46-1.13.94-2.25,1.44-3.36.11-.25.3-.49.5-.68.36-.34.8-.39,1.24-.18.45.21.66.59.64,1.2Z"/>
            <path class="cls-11" d="M500.31,298.28c.07-.21.16-.52.29-.82.44-1.01.84-2.03,1.34-3.01.35-.69.95-.86,1.53-.6.59.27.87.85.6,1.53-.47,1.21-.98,2.41-1.53,3.59-.3.64-.85.87-1.39.72-.57-.16-.92-.7-.85-1.42Z"/>
            <path class="cls-11" d="M480.79,302.59c-.08.29-.17.69-.28,1.07-.28.93-.53,1.88-.88,2.79-.29.74-.95,1.01-1.57.76-.59-.23-.85-.75-.65-1.51.34-1.25.7-2.5,1.11-3.74.21-.64.75-.88,1.36-.75.56.12.92.62.92,1.38Z"/>
            <path class="cls-11" d="M487.25,345.26c.05-.13.1-.38.23-.58.67-1.02,1.32-2.05,2.05-3.02.5-.67,1.15-.76,1.7-.37.54.38.66,1.05.23,1.73-.67,1.06-1.38,2.1-2.09,3.14-.34.49-.83.65-1.39.47-.51-.15-.79-.67-.72-1.37Z"/>
            <path class="cls-11" d="M504.7,319.23c0,.3-.1.55-.25.8-.61,1.01-1.2,2.02-1.81,3.03-.29.48-.69.81-1.29.73-.72-.09-1.2-.81-.91-1.55.54-1.37,1.33-2.6,2.24-3.75.33-.42.83-.5,1.34-.31.46.17.69.55.7,1.04Z"/>
            <path class="cls-11" d="M480.44,359.04c0,.32-.15.6-.35.86-.68.86-1.35,1.73-2.03,2.58-.15.19-.32.37-.52.51-.48.34-.98.37-1.46,0-.41-.31-.6-.95-.28-1.43.82-1.21,1.65-2.41,2.72-3.42.39-.37.9-.38,1.37-.14.39.2.57.56.56,1.03Z"/>
            <path class="cls-11" d="M486.4,329.76c.76.04,1.35.84,1.02,1.58-.49,1.11-1.08,2.18-1.71,3.22-.37.61-1.08.73-1.6.44-.57-.32-.74-.97-.38-1.7.45-.91.93-1.8,1.43-2.68.35-.62.77-.87,1.24-.84Z"/>
          </g>
          <g>
            <path class="cls-15" d="M370.86,333.63c-1.11-.2-2.56-.41-3.99-.72-.73-.16-1.09-.73-1-1.32.1-.62.59-1.02,1.35-.96.89.08,1.77.25,2.66.38.48.07.97.14,1.45.2,1.02.11,1.54.52,1.54,1.23,0,.76-.65,1.23-2.01,1.2Z"/>
            <path class="cls-15" d="M377.11,343.02c-.96-.17-2.24-.37-3.51-.65-.8-.18-1.16-.75-1.02-1.41.14-.65.68-1.02,1.5-.91,1.21.16,2.41.4,3.61.61.96.17,1.39.58,1.36,1.26-.04.73-.62,1.14-1.93,1.11Z"/>
            <path class="cls-15" d="M311.44,333.66c-.1-.04-.3-.09-.47-.18-1.02-.58-2.04-1.16-3.06-1.75-.14-.08-.27-.18-.38-.3-.45-.46-.54-1.08-.21-1.55.36-.5.89-.66,1.4-.39,1.25.66,2.48,1.38,3.68,2.13.5.31.59.87.35,1.41-.22.5-.66.69-1.3.63Z"/>
            <path class="cls-15" d="M376.3,360.41c-.88-.15-2.05-.3-3.19-.55-.72-.16-1.05-.7-.97-1.34.09-.65.66-1.07,1.44-.98,1.09.12,2.17.3,3.25.47.91.14,1.34.6,1.27,1.32-.07.68-.61,1.07-1.8,1.09Z"/>
            <path class="cls-15" d="M356.42,333.38c-1.12-.27-2.39-.54-3.64-.9-.67-.19-.93-.72-.82-1.31.11-.61.63-1.03,1.36-.94.76.09,1.51.3,2.26.47.51.12,1.04.23,1.52.43.62.25.9.82.76,1.36-.14.56-.65.91-1.44.89Z"/>
            <path class="cls-15" d="M310.21,324.54c.03.84-.84,1.47-1.6,1.07-1.18-.63-2.32-1.34-3.43-2.1-.56-.38-.61-1.01-.28-1.52.32-.5.89-.71,1.49-.42,1.14.54,2.22,1.2,3.24,1.93.35.25.54.6.58,1.03Z"/>
            <path class="cls-15" d="M385.58,336.94c1.04.2,2.15.3,3.18.69.74.28,1.05.92.86,1.55-.19.64-.77.91-1.58.72-.88-.2-1.75-.4-2.63-.59-.37-.08-.7-.23-.94-.53-.27-.35-.33-.74-.14-1.15.24-.51.67-.68,1.24-.7Z"/>
            <path class="cls-15" d="M298.59,320.71c0,.8-.74,1.38-1.52,1.07-1.14-.45-2.19-1.1-3.13-1.89-.49-.42-.52-1.08-.17-1.55.38-.5.93-.61,1.42-.34,1.01.53,1.97,1.14,2.94,1.76.32.2.47.56.46.95Z"/>
            <path class="cls-15" d="M381.96,351.87c-.69-.07-1.39-.07-2.07-.26-.73-.2-1.12-.7-1.04-1.3.08-.62.56-1.03,1.32-1,.94.03,1.88.11,2.81.23.75.09,1.18.57,1.17,1.18-.01.65-.52,1.1-1.33,1.15-.28.02-.57,0-.86,0Z"/>
            <path class="cls-15" d="M317.36,323.03c.13.04.37.09.58.2.75.41,1.51.81,2.24,1.26.7.43.91,1.07.61,1.65-.3.58-.95.8-1.69.44-.88-.43-1.73-.92-2.55-1.45-.48-.31-.69-.81-.46-1.39.2-.52.61-.74,1.27-.71Z"/>
            <path class="cls-15" d="M365.85,344.78c-.8-.14-1.62-.24-2.41-.42-.8-.19-1.19-.75-1.08-1.39.11-.65.67-1.04,1.48-.95.85.1,1.7.25,2.54.41.85.16,1.26.6,1.21,1.26-.05.7-.61,1.11-1.5,1.09-.08,0-.16-.02-.24-.02,0,.01,0,.02,0,.03Z"/>
            <path class="cls-15" d="M370.12,351.52c-.62-.07-1.36-.12-2.08-.26-.81-.15-1.21-.68-1.13-1.35.08-.67.61-1.07,1.43-1.02.73.04,1.46.14,2.19.22.91.09,1.41.53,1.39,1.23-.02.69-.57,1.14-1.44,1.18-.08,0-.16,0-.36,0Z"/>
            <path class="cls-15" d="M389,364.97c-.62-.08-1.32-.12-2-.26-.9-.18-1.33-.72-1.21-1.41.11-.65.62-1,1.48-.95.77.05,1.54.15,2.31.25.81.11,1.27.59,1.22,1.25-.04.61-.5,1.02-1.25,1.11-.16.02-.33,0-.56,0Z"/>
            <path class="cls-15" d="M305.54,308.3c.99.39,2.13.85,3.02,1.71.39.37.39.88.08,1.35-.31.47-.79.64-1.28.46-.99-.37-1.92-.89-2.8-1.49-.45-.31-.53-.81-.35-1.32.19-.53.62-.72,1.32-.71Z"/>
            <path class="cls-15" d="M313.04,318.43c.03.8-.68,1.4-1.47,1.14-.93-.3-1.78-.81-2.55-1.42-.46-.37-.56-.89-.3-1.43.23-.48.79-.76,1.35-.54.95.36,1.84.86,2.65,1.49.23.18.33.46.32.76Z"/>
          </g>
          <g>
            <path class="cls-15" d="M252.68,281.69c.02.76-.66,1.37-1.38,1.08-1.31-.53-2.58-1.17-3.84-1.83-.48-.25-.57-.77-.4-1.29.17-.5.73-.86,1.27-.69,1.39.46,2.72,1.06,3.94,1.88.28.18.41.5.4.85Z"/>
            <path class="cls-15" d="M258.63,278.58c.34.01.64.12.92.31.88.6,1.75,1.19,2.62,1.81.2.14.37.33.51.52.32.45.32.93-.04,1.36-.35.43-.86.58-1.32.29-1.17-.74-2.31-1.54-3.43-2.35-.4-.29-.46-.76-.3-1.23.16-.48.55-.68,1.04-.7Z"/>
            <path class="cls-15" d="M244.94,269.82c.18,0,.45.1.68.28.88.66,1.76,1.33,2.63,2.01.13.1.24.23.32.36.32.49.28,1.09-.1,1.46-.4.39-.91.47-1.34.16-1.03-.73-2.03-1.51-3.01-2.31-.41-.34-.5-.84-.27-1.34.19-.4.52-.61,1.09-.62Z"/>
            <path class="cls-15" d="M244.45,284.37c0,.75-.72,1.35-1.43,1.08-1.14-.42-2.24-.94-3.32-1.49-.53-.27-.67-.88-.48-1.37.21-.52.83-.86,1.41-.63,1.09.43,2.16.93,3.22,1.44.39.19.56.57.6.97Z"/>
            <path class="cls-15" d="M264.97,290.09c0,.86-.67,1.4-1.44,1.11-1.07-.4-2.03-1.06-2.93-1.75-.38-.29-.44-.78-.2-1.23.23-.44.64-.74,1.1-.61,1.27.37,2.37,1.07,3.31,2,.13.12.12.38.16.48Z"/>
            <path class="cls-15" d="M253.42,266.97c.03.95-.87,1.57-1.61,1.07-.91-.61-1.74-1.36-2.54-2.11-.39-.37-.38-.89-.05-1.35.3-.41.77-.59,1.19-.38,1.14.56,2.13,1.34,2.9,2.37.09.12.08.31.1.39Z"/>
            <path class="cls-15" d="M269.34,281.9c-.02.85-.91,1.39-1.65.93-.79-.49-1.53-1.07-2.25-1.65-.45-.37-.56-.89-.27-1.43.26-.48.83-.73,1.36-.47.91.44,1.76,1.01,2.48,1.73.23.23.35.55.33.89Z"/>
            <path class="cls-15" d="M239.44,277.95c-.86-.38-1.93-.78-2.8-1.53-.41-.35-.45-.86-.16-1.33.28-.46.74-.69,1.25-.5.95.36,1.85.82,2.7,1.39.44.3.57.78.38,1.3-.17.47-.62.72-1.37.67Z"/>
            <path class="cls-15" d="M257.63,275.52c-.25,0-.48-.08-.68-.23-.67-.52-1.37-1.02-1.99-1.59-.54-.49-.57-1.16-.18-1.63.4-.48,1.01-.55,1.64-.1.69.49,1.35,1.04,1.99,1.59.4.35.52.82.3,1.33-.2.45-.58.66-1.07.64Z"/>
          </g>
        </g>
        <path class="cls-2" d="M317.8,351.44c.61-.57,1.14-1.07,1.66-1.58,3.28-3.23,6.09-6.84,8.6-10.68,1.73-2.63,3.39-5.3,5.1-7.95.53-.82,1.07-1.64,1.64-2.44.57-.81,1.26-1.5,2.08-2.07.48-.33.98-.62,1.58-.27.58.34.68.9.64,1.49-.11,1.65-.6,3.21-1.16,4.75-1.22,3.3-2.75,6.47-4.34,9.6-1.94,3.83-3.63,7.78-5.73,11.53-.04.06-.03.15-.07.41.32-.24.56-.4.78-.58,4.27-3.68,7.89-7.94,11.2-12.48,1.93-2.64,3.73-5.38,5.79-7.92.72-.89,1.45-1.78,2.49-2.33.69-.36,1.42-.79,2.17-.2.71.56.62,1.37.46,2.15-.27,1.33-.75,2.59-1.28,3.83-1.66,3.92-3.66,7.68-5.84,11.33-1.97,3.3-4.07,6.52-6.11,9.77-.14.23-.35.43-.38.91.35-.26.6-.43.83-.62,3.59-3.06,6.83-6.47,9.82-10.1,1.79-2.18,3.64-4.32,5.74-6.21.73-.66,1.47-1.3,2.36-1.75,1.31-.66,2.27-.09,2.34,1.38.03.71-.19,1.37-.42,2.03-.94,2.74-2.49,5.14-4.16,7.47-2.28,3.19-4.69,6.3-7.16,9.35-.26.32-.5.64-.8,1.01.48.23.73-.13.99-.29,3.01-1.83,5.89-3.83,8.82-5.78,1.09-.73,2.17-1.46,3.34-2.06.62-.32,1.26-.58,1.96-.7,1.02-.17,1.68.47,1.54,1.49-.1.7-.41,1.32-.76,1.93-.69,1.17-1.52,2.23-2.38,3.27-5.69,6.98-11.83,13.55-18.37,19.75-4.07,3.85-8.1,7.74-12.42,11.32-5.36,4.44-11.14,8.3-16.81,12.32-9.35,6.63-19.15,12.55-29.31,17.83-10.9,5.66-22.23,10.31-34.02,13.8-6.98,2.07-14.08,3.64-21.32,4.51-12.83,1.55-24.94-.73-36.46-6.62-9.32-4.77-16.49-11.68-21.71-20.68-2.46-4.24-3.97-8.86-5.36-13.53-2.14-7.18-2.82-14.5-2.21-21.96.32-3.94,1.34-7.71,2.58-11.45.42-1.27,1.34-1.82,2.69-1.83,6.63-.05,13.25.31,19.87.4,3.8.05,7.61.07,11.41.19,7.23.22,14.47.39,21.71.5,1.87.03-1.31,11.88,9.12,25.02.49,1.31.49,1.33,1.79,1,1.98-.51,3.97-.98,5.92-1.58,8.59-2.64,17.32-4.81,25.79-7.83,12.82-4.56,24.79-10.78,35.8-18.8,5.52-4.02,10.09-8.88,13.53-14.84,2.5-4.32,4.86-8.71,7.31-13.05.2-.35.39-.73.65-1.03.68-.76,1.73-.5,1.99.48.09.35.06.73.07,1.1.08,3.14-.7,6.16-1.31,9.2-.49,2.41-1.21,4.75-2.1,7.04-.1.26-.29.5-.15,1.05Z"/>
        <path class="cls-2" d="M359.95,419.11c-.52-.82-1.04-1.64-1.57-2.45-2.7-4.15-5.3-8.36-7.65-12.71-.5-.93-.95-1.9-1.39-2.87-.2-.44-.36-.91-.49-1.38-.37-1.3-.19-2.17.56-2.67.99-.65,1.88-.24,2.74.3.84.53,1.5,1.27,2.12,2.03,1.16,1.43,2.31,2.87,3.4,4.35,3.08,4.17,6.58,7.92,10.72,11.06.23.17.46.33.74.53.21-.42-.09-.65-.23-.88-1.62-2.7-3.27-5.38-4.88-8.08-1.83-3.07-3.23-6.33-4.36-9.71-.26-.78-.45-1.57-.57-2.38-.07-.45-.06-.9.03-1.34.25-1.22,1.23-1.76,2.39-1.3.66.26,1.19.71,1.69,1.2,1.44,1.42,2.58,3.06,3.67,4.74,2.69,4.16,5.61,8.15,8.97,11.8.76.83,1.51,1.67,2.6,2.22-.4-.69-.79-1.39-1.2-2.08-2.51-4.17-4.81-8.46-6.64-12.98-.83-2.04-1.64-4.1-2.14-6.26-.13-.56-.2-1.13-.17-1.7.07-1.47,1.21-2.19,2.56-1.6.77.34,1.34.92,1.87,1.56,1.09,1.33,2.02,2.78,2.98,4.2,2.69,4,5.36,8.03,8.51,11.7,1.34,1.56,2.84,2.94,4.46,4.19.27.21.52.51,1.03.49-.18-.46-.33-.86-.49-1.27-1.25-3.05-2.18-6.17-2.01-9.52.03-.49.06-.98.22-1.45.51-1.61,1.94-2.12,3.38-1.21.63.4,1.13.95,1.61,1.5,1.47,1.71,2.69,3.6,3.93,5.48,1.31,1.98,2.71,3.87,4.41,5.56,2.06,2.05,6.05,2.37,8.58.5,2.43-1.8,4.08-4.08,5.11-6.88.66-1.81,1.14-3.67,1.49-5.56.07-.36.13-.72.22-1.08,34.92.52,48.37-7,54.42-8.13.22-.1.44-.22.66-.32,1.15-.5,1.81-.1,1.87,1.17.05,1.03-.1,2.05-.31,3.04-1.98,9.25-4.46,16.74-8.46,25.39-3.95,8.54-8.64,16.6-14.38,24.04-3.92,5.08-8.32,9.67-13.86,13.04-7.49,4.55-15.6,7.24-24.33,8.06-7.82.74-15.19-.76-22.24-4.17-5.43-2.62-10.68-5.52-15.39-9.3-5.3-4.25-10.51-8.63-14.97-13.77-5.22-6.03-10.25-12.22-14.34-19.11-.96-1.62-1.83-3.28-2.65-4.98-.45-.92-.78-1.89-1.02-2.89-.14-.6-.22-1.21-.07-1.82.27-1.18,1.29-1.74,2.43-1.34.59.21,1.08.58,1.55.97,1.4,1.14,2.64,2.44,3.85,3.77,3.4,3.72,7.13,7.08,10.87,10.43.07-.05.13-.1.2-.15Z"/>
      </g>
      <path class="cls-3" d="M317.36,179.38c.94,3.64,1.57,7.34,1.83,11.09.12,1.69.19,3.39.13,5.08-.05,1.39-.22,2.95-1.25,3.98-1.58,1.58-4.2,2.03-4.99,4.38-1.03,3.07,1.83,5.11,4.25,6.15,1.46.63,2.74-1.52,1.26-2.16-1.15-.5-3.15-1.21-3.22-2.73-.04-.99,1.06-1.58,1.77-2.01,2.16-1.31,3.88-2.62,4.41-5.25.59-2.94.27-6.17-.01-9.13-.33-3.4-.92-6.76-1.78-10.07-.4-1.56-2.81-.9-2.41.66h0Z"/>
    </g>
  </g>
</svg>